<svg xmlns="http://www.w3.org/2000/svg" viewBox="0 0 320 515.25"><defs><style>.cls-1{fill:#cacbcc;}</style></defs><title>doc_50pco</title><g id="Layer_2" data-name="Layer 2"><g id="Layer_9" data-name="Layer 9"><path class="cls-1" d="M67.42,96.1H33.82a1.92,1.92,0,0,0-2.14,2.14v56.29c0,3-1.5,4.28-4.71,4.28H3.85C1.07,158.82,0,157.53,0,155V3.64C0,1.07,1.07,0,3.21,0H63.78C98,0,125,15,125,48.37,125,79.84,101.24,96.1,67.42,96.1ZM62.07,22.9H35.32c-2.57,0-3.64,1.07-3.64,3.42V69.56c0,2.57.64,3.64,2.78,3.64h28.9c17.77,0,29.11-8.78,29.11-25.47C92.47,30.39,80.27,22.9,62.07,22.9Z"/><rect class="cls-1" x="174.51" y="1" width="145.49" height="11.1"/><rect class="cls-1" x="174.51" y="21" width="145.49" height="11.1"/><rect class="cls-1" x="174.51" y="41" width="145.49" height="11.1"/><rect class="cls-1" x="174.51" y="61" width="145.49" height="11.1"/><rect class="cls-1" x="137.12" y="126.4" width="182.88" height="43.29"/><rect class="cls-1" y="223.97" width="145.49" height="21.56"/><rect class="cls-1" x="174.51" y="223.97" width="145.49" height="21.56"/><rect class="cls-1" y="263.97" width="145.49" height="21.56"/><rect class="cls-1" x="174.51" y="263.97" width="145.49" height="21.56"/><rect class="cls-1" y="303.97" width="145.49" height="21.56"/><rect class="cls-1" x="174.51" y="303.97" width="145.49" height="21.56"/><rect class="cls-1" y="343.97" width="145.49" height="21.56"/><rect class="cls-1" x="174.51" y="343.97" width="145.49" height="21.56"/><rect class="cls-1" y="383.97" width="145.49" height="21.56"/><rect class="cls-1" x="174.51" y="383.97" width="145.49" height="21.56"/><rect class="cls-1" y="421.97" width="145.49" height="21.56"/><rect class="cls-1" x="174.51" y="421.97" width="145.49" height="21.56"/><rect class="cls-1" y="459.97" width="145.49" height="21.56"/><rect class="cls-1" x="174.51" y="459.97" width="145.49" height="21.56"/><rect class="cls-1" y="508.22" width="320" height="7.04"/></g></g></svg>