<svg xmlns="http://www.w3.org/2000/svg" viewBox="0 0 425.47 501.15"><defs><style>.cls-1{fill:#cacbcc;}.cls-2{fill:#fff;}</style></defs><title>invite_50pco</title><g id="Layer_2" data-name="Layer 2"><g id="Layer_7" data-name="Layer 7"><path class="cls-1" d="M211.17,249.33c0,69.55-47.27,94.77-105.58,94.77S0,318.89,0,249.33c0-44.86,19.66-97.21,49.28-128.73l.19.24A77.38,77.38,0,0,0,74,140.35a70,70,0,0,0,63.2,0,77.49,77.49,0,0,0,24.52-19.5l.19-.24C191.51,152.12,211.17,204.47,211.17,249.33Z"/><path class="cls-1" d="M157.11,61.06c0,16.71-5.67,31.85-14.85,42.87-9.33,11.23-22.32,18.19-36.68,18.19s-27.33-7-36.68-18.19c-9.18-11-14.84-26.17-14.84-42.88C54.07,27.33,77.13,0,105.59,0S157.11,27.33,157.11,61.06Z"/><path class="cls-1" d="M276.2,493.15c-41.64,0-75-9.62-99.18-28.6-27.93-21.93-42.1-55.24-42.1-99,0-59.49,25.87-127,64.37-168l6.51-6.93,5.68,7.56a89.71,89.71,0,0,0,28.41,22.61,80.37,80.37,0,0,0,72.6,0,89.87,89.87,0,0,0,28.42-22.62l5.68-7.46,6.5,6.84c38.49,41,64.36,108.47,64.36,168,0,43.78-14.16,77.1-42.09,99C351.2,483.53,317.84,493.15,276.2,493.15Z"/><path class="cls-2" d="M347.28,203.05c37.37,39.78,62.19,105.86,62.19,162.48,0,87.79-59.66,119.62-133.26,119.62S142.92,453.33,142.92,365.53c0-56.62,24.82-122.7,62.2-162.48l.24.3A97.67,97.67,0,0,0,236.31,228a88.37,88.37,0,0,0,79.77,0A97.8,97.8,0,0,0,347,203.35l.24-.3m-1.38-24.83-11.25,15a81.86,81.86,0,0,1-25.73,20.45,72.37,72.37,0,0,1-65.43,0,81.71,81.71,0,0,1-25.74-20.45l-11.25-15-13,13.87c-39.8,42.35-66.54,112.05-66.54,173.44,0,23.41,4,44.33,11.83,62.17a111.05,111.05,0,0,0,33.33,43.15c25.62,20.11,60.65,30.3,104.12,30.3s78.5-10.2,104.11-30.3a111,111,0,0,0,33.32-43.15c7.85-17.84,11.83-38.76,11.83-62.17,0-61.38-26.74-131.08-66.53-173.44l-13-13.88Z"/><path class="cls-1" d="M276.2,213c-20,0-38.58-9.17-52.45-25.83-13.27-15.93-20.58-37-20.58-59.24,0-46.91,32.76-85.07,73-85.07s73,38.16,73,85.07c0,22.25-7.31,43.28-20.59,59.23C314.79,203.79,296.17,213,276.2,213Z"/><path class="cls-2" d="M276.2,50.82c35.91,0,65,34.5,65,77.07,0,21.09-7.15,40.2-18.74,54.11-11.78,14.17-28.17,23-46.29,23s-34.5-8.78-46.3-23c-11.59-13.91-18.73-33-18.73-54.12,0-42.57,29.11-77.07,65-77.07m0-16c-22.17,0-42.84,10-58.22,28.25-14.71,17.44-22.82,40.46-22.82,64.82,0,24.14,8,47,22.43,64.36C233,210.77,253.83,221,276.2,221A71.87,71.87,0,0,0,309,213.07a81.41,81.41,0,0,0,25.84-20.85c14.46-17.36,22.43-40.22,22.43-64.33,0-24.36-8.1-47.38-22.82-64.82-15.37-18.22-36-28.25-58.21-28.25Z"/></g></g></svg>