<svg xmlns="http://www.w3.org/2000/svg" viewBox="0 0 539.9 574.83"><defs><style>.cls-1{fill:#219a60;}</style></defs><title>CC_logo_1</title><g id="Layer_2" data-name="Layer 2"><g id="Layer_10" data-name="Layer 10"><path class="cls-1" d="M13.68,111.45C-12.52,70.93,12.4,80.22,30.19,69.1s55.86-43,78.65-50.38,53.22-16.36,69.85,1.63,47.25.1,55.6-16.06S245,23,268.38,20.88s101.12,12.5,97.36,61.89-25.58,44.41-18.12,76.07-57.46,29.57-115.46,86.57c76-64,94.44-33.24,119.56-39.39,18.73-4.59,49.1,7.32,67,4s109.78,5.41,116.64,29.74c4.52,16-9.33,38.24-14.73,46.22-16.43,24.3,5.6,35.34.39,44.89s-14.54,9.09-13.3,13.23,18.34.35,13.47,14.23,21,11.58,18.51,21.73-11.09,9.54-15.7,19.56-2.52,30.53-7.41,40-33.37,8.62-16.57,25.73,7,24.89-15,25.83c-10.87.46-16.58,4.53-12.65,14.32s2.32,85.28-80.25-9.48c-89-102.14-212-198.57-299-27.57-5.45,10.71-43,106.42-43,106.42-19-4.42-6.79-26.05-2.44-39.2,23.8-71.92,89.13-196.87,70.44-242.79-46-113-152-153-107.46-161.18C31.18,127.9,19.73,120.81,13.68,111.45Z"/></g></g></svg>
