<svg xmlns="http://www.w3.org/2000/svg" viewBox="0 0 14.96 19.57"><defs><style>.cls-1{fill:#2c2a33;}</style></defs><title>profile_1</title><g id="Layer_2" data-name="Layer 2"><g id="profile"><g id="profile-2" data-name="profile"><path class="cls-1" d="M12.42,1.65a5.1,5.1,0,0,1,1.2,1.17,5.85,5.85,0,0,1,.66,1.59,1.6,1.6,0,0,1,.09.95c-.07.2-.21.36-.27.56-.18.53.2,1.08.54,1.53s.47.81.2,1.11-.92.25-1,.65a6.87,6.87,0,0,1-.56,1.94,1.26,1.26,0,0,1-.25.4c-.43.41-1.11.14-1.7.11a2,2,0,0,0-2,1.88,3.8,3.8,0,0,0,.43,1.52l1.46,3.31c.13.3-.27.55-.59.63A19.36,19.36,0,0,1,0,18.6a14.8,14.8,0,0,1,1.44-4,6.5,6.5,0,0,1,3-2.85A2,2,0,0,0,5.54,9.7a5.2,5.2,0,0,0-1-2.27A8.07,8.07,0,0,1,3.41,5.24,4,4,0,0,1,4.47,1.47,5.18,5.18,0,0,1,8.18,0a6,6,0,0,1,2.36.5,9.22,9.22,0,0,1,1.88,1.15"/></g></g></g></svg>