<svg xmlns="http://www.w3.org/2000/svg" viewBox="0 0 19.06 19.25"><defs><style>.cls-1{fill:rgb(192,194,194);}</style></defs><title>log_1</title><g id="Layer_2" data-name="Layer 2"><g id="log_in" data-name="log in"><g id="log"><path class="cls-1" d="M4.35,14.48a2.16,2.16,0,0,1-.62-2.16,1.84,1.84,0,0,1,.47-.67,2.4,2.4,0,0,1,2.61-.43A2.19,2.19,0,0,1,8,13.54a2,2,0,0,1-2,1.59,1.12,1.12,0,0,1,.48-.23,1.4,1.4,0,0,0,1-1.23,1.8,1.8,0,0,0-.67-1.51A1.89,1.89,0,0,0,4.64,12,1.55,1.55,0,0,0,4.18,14C4.27,14.18,4.39,14.32,4.35,14.48Z"/><path class="cls-1" d="M2.92,13.59a4.84,4.84,0,0,0,1,1.93,2.81,2.81,0,0,0,1.92,1,3,3,0,0,0,.89-.11A3.36,3.36,0,0,0,8.46,15.3,2.46,2.46,0,0,0,9,13.39c0-.11,0-.26.1-.27a3.25,3.25,0,0,1-.8,3,3.49,3.49,0,0,1-2.9,1,3.77,3.77,0,0,1-2.64-1.62,5.25,5.25,0,0,1-.48-.91,4.42,4.42,0,0,1-.41-1.89,3.4,3.4,0,0,1,2.45-3,4.15,4.15,0,0,1,3.83,1,1.52,1.52,0,0,1,.58.95,3.47,3.47,0,0,0-1.42-1.33,2.88,2.88,0,0,0-.8-.19A3.84,3.84,0,0,0,4,10.65a2.6,2.6,0,0,0-1.17,2.28A3.4,3.4,0,0,0,2.92,13.59Z"/><path class="cls-1" d="M8.74,1.35A2.76,2.76,0,0,1,10.56,0c1-.12,1.3.34,1.88,1.07A2.67,2.67,0,0,1,14.94.6a5.11,5.11,0,0,1,1.4.43A4.83,4.83,0,0,1,18.9,4.11a4.83,4.83,0,0,1-.71,3.95l-3.3,4.7a23,23,0,0,1-3.71,4.44,7.74,7.74,0,0,1-5.29,2A6.13,6.13,0,0,1,1.81,17.3,6.88,6.88,0,0,1,0,13.12a5.15,5.15,0,0,1,.17-1.85c.49-1.64,2-2.76,3.34-3.77L9.11,3.43c.21-.15.17-.48,0-.71a3.15,3.15,0,0,0-.41-.57A.71.71,0,0,1,8.74,1.35Zm9.28,4A5.07,5.07,0,0,0,16.78,2.6a3.62,3.62,0,0,0-2.22-1.19,1.91,1.91,0,0,0-1.47.31c-.38.24-.5.41-.34,1.22a7.22,7.22,0,0,0-1.13-1.87,3.06,3.06,0,0,1-1.87,1c-.19,0-.17.15-.09.32A4.07,4.07,0,0,1,10,4.84c-.29-.08-.09-.66-.38-.75a.38.38,0,0,0-.31.1L4.47,7.65A14.76,14.76,0,0,0,2.23,9.48,5,5,0,0,0,.89,12a5.11,5.11,0,0,0,.28,2.48,5.37,5.37,0,0,0,4.09,3.8,6,6,0,0,0,3-.59A4.71,4.71,0,0,0,11,13.85,5.14,5.14,0,0,0,9.17,9.48,5.68,5.68,0,0,0,4.52,8.37,2.85,2.85,0,0,1,6.28,8a5.77,5.77,0,0,1,5.4,6.73c0,.22-.07.48.1.62q2.89-3.72,5.62-7.56a3.94,3.94,0,0,0,.49-.83A3.1,3.1,0,0,0,18,5.38M10.54.45a2,2,0,0,0-1.2.68c-.28.38-.19.58,0,.58A2.38,2.38,0,0,0,10,1.57,2.15,2.15,0,0,0,11,1C11.19.74,11.34.4,10.54.45Z"/></g></g></g></svg>
