<svg xmlns="http://www.w3.org/2000/svg" viewBox="0 0 17 17"><defs><style>.cls-1{fill:#2c2a33;}</style></defs><title>about</title><g id="Layer_2" data-name="Layer 2"><g id="information"><path class="cls-1" d="M7.67,7.83,6.82,7.6V6.8L9,6.53H9l.34.24v5.77l.8.1v.72H6.83v-.72l.84-.11Zm0-2.48a.88.88,0,0,1-.25-.65,1,1,0,0,1,.29-.76,1,1,0,0,1,.77-.3,1,1,0,0,1,.73.26.88.88,0,0,1,.25.64,1,1,0,0,1-.29.77,1.09,1.09,0,0,1-.8.29h0A.92.92,0,0,1,7.62,5.34Z"/><path class="cls-1" d="M8.5,0A8.5,8.5,0,1,0,17,8.5,8.51,8.51,0,0,0,8.5,0Zm0,15.37A6.87,6.87,0,1,1,15.37,8.5,6.86,6.86,0,0,1,8.5,15.37Z"/></g></g></svg>