<svg xmlns="http://www.w3.org/2000/svg" viewBox="0 0 19.08 17.33"><defs><style>.cls-1{fill:#2c2a33;}</style></defs><title>household_settings</title><g id="Layer_2" data-name="Layer 2"><g id="household_settings" data-name="household settings"><path class="cls-1" d="M9.54,0,6.76,2V.73H4.12V4L0,7H2.32V17.33H16.76V7h2.32Zm4.54,13.87a1.07,1.07,0,0,1-2.13,0,1.07,1.07,0,0,1,.63-1v-2H10v2a1.06,1.06,0,1,1-1.56.94A1.08,1.08,0,0,1,9,12.94v-2H6.49v2a1.1,1.1,0,0,1,.64,1,1.07,1.07,0,0,1-2.13,0A1.09,1.09,0,0,1,5.47,13V7.83A1.08,1.08,0,0,1,5,7a.17.17,0,0,1,0-.07,1,1,0,0,1,.23-.65,1,1,0,0,1,1.66,0,1.07,1.07,0,0,1,.23.65V7a1.08,1.08,0,0,1-.63.91v2H9v-2A1.09,1.09,0,0,1,8.48,7V6.94a1,1,0,0,1,.23-.65,1,1,0,0,1,1.66,0,1,1,0,0,1,.23.65V7a1.06,1.06,0,0,1-.56.87v2h2.54v-2a1.08,1.08,0,0,1-.63-.9V6.94a1.07,1.07,0,0,1,.23-.65A1.06,1.06,0,0,1,13,5.88a1,1,0,0,1,.83.41,1.07,1.07,0,0,1,.23.65.17.17,0,0,1,0,.07,1.09,1.09,0,0,1-.48.83V13A1.05,1.05,0,0,1,14.08,13.87Z"/></g></g></svg>