<svg xmlns="http://www.w3.org/2000/svg" viewBox="0 0 409.46 485.16"><defs><style>.cls-1{fill:#2c2a33;}</style></defs><title>invite_1</title><g id="Layer_2" data-name="Layer 2"><g id="Layer_5" data-name="Layer 5"><path class="cls-1" d="M193.46,192.1c-34.94,37.18-59.81,95.43-65.36,150.63a175.36,175.36,0,0,1-22.51,1.38C47.27,344.11,0,318.89,0,249.34c0-44.87,19.66-97.22,49.28-128.73a2,2,0,0,0,.19.24A77.33,77.33,0,0,0,74,140.35a70,70,0,0,0,63.2,0,77.66,77.66,0,0,0,24.52-19.5l.19-.24c16,17,29.1,40.16,37.76,64.9Z"/><path class="cls-1" d="M157.11,61.06c0,16.71-5.67,31.85-14.85,42.87-9.33,11.23-22.32,18.19-36.68,18.19s-27.33-7-36.68-18.19c-9.18-11-14.84-26.17-14.84-42.88C54.07,27.33,77.13,0,105.59,0S157.11,27.33,157.11,61.06Z"/><path class="cls-1" d="M409.46,365.54c0,87.79-59.66,119.62-133.26,119.62S142.92,453.33,142.92,365.54a212,212,0,0,1,1.63-25.89C150.61,289.81,173.27,237,205,203.18l.11-.12.24.3a97.75,97.75,0,0,0,31,24.61,88.31,88.31,0,0,0,79.77,0,97.75,97.75,0,0,0,31-24.61c.09-.1.17-.21.24-.3C384.64,242.83,409.46,308.91,409.46,365.54Z"/><path class="cls-1" d="M341.23,127.9c0,21.08-7.15,40.2-18.74,54.11-11.78,14.17-28.17,23-46.29,23s-34.5-8.78-46.31-23c-11.58-13.91-18.72-33-18.72-54.12,0-42.57,29.1-77.08,65-77.08S341.23,85.33,341.23,127.9Z"/></g></g></svg>
