<svg xmlns="http://www.w3.org/2000/svg" viewBox="0 0 427.5 510.97"><defs><style>.cls-1{fill:#105130;}</style></defs><title>rank_up_1</title><g id="Layer_2" data-name="Layer 2"><g id="Layer_12" data-name="Layer 12"><path class="cls-1" d="M427.5,150.78v88.4A12.53,12.53,0,0,1,415,251.72l-34.8-17.43-.33,264.16a12.53,12.53,0,0,1-15.16,12.25L212.37,478,62.86,510.63a12.53,12.53,0,0,1-15.2-12.24L48,234.28,12.53,251.72A12.53,12.53,0,0,1,0,239.19v-88.4A12.53,12.53,0,0,1,5.52,140.4L213.75,0,422,140.4A12.53,12.53,0,0,1,427.5,150.78Z"/></g></g></svg>