<svg xmlns="http://www.w3.org/2000/svg" viewBox="0 0 70.79 39.86"><defs><style>.cls-1{fill:#cacbcc;}.cls-2{fill:#2a2c33;}</style></defs><title>barGraph_icon</title><g id="Layer_2" data-name="Layer 2"><g id="Layer_2-2" data-name="Layer 2"><rect class="cls-1" x="12.89" y="15.93" width="7.93" height="22.97"/><rect class="cls-1" x="28.89" y="6.93" width="7.93" height="31.97"/><rect class="cls-1" x="44.94" y="19.18" width="7.92" height="19.71"/><rect class="cls-1" x="60.66" y="15.34" width="7.92" height="23.58"/></g><g id="Layer_1-2" data-name="Layer 1"><polygon class="cls-2" points="70.79 37.93 70.79 39.86 0 39.86 0 0 1.82 0 1.82 5.93 3.89 5.93 3.89 7.93 1.82 7.93 1.82 13.93 3.89 13.93 3.89 15.93 1.82 15.93 1.82 21.93 3.89 21.93 3.89 23.93 1.82 23.93 1.82 29.93 3.89 29.93 3.89 31.93 1.82 31.93 1.82 37.93 7.62 37.93 7.62 35.66 9.62 35.66 9.62 37.93 15.62 37.93 15.62 35.66 17.62 35.66 17.62 37.93 23.62 37.93 23.62 35.66 25.62 35.66 25.62 37.93 31.62 37.93 31.62 35.66 33.62 35.66 33.62 37.93 39.62 37.93 39.62 35.66 41.62 35.66 41.62 37.93 47.62 37.93 47.62 35.66 49.62 35.66 49.62 37.93 55.62 37.93 55.62 35.66 57.62 35.66 57.62 37.93 63.62 37.93 63.62 35.66 65.62 35.66 65.62 37.93 70.79 37.93"/></g></g></svg>