<svg xmlns="http://www.w3.org/2000/svg" viewBox="0 0 187.95 492.67"><defs><style>.cls-1{fill:#2a2c33;}</style></defs><title>footprint</title><g id="Layer_2" data-name="Layer 2"><g id="Layer_4" data-name="Layer 4"><path class="cls-1" d="M24.24,382.35c28.31,7.82,36.54,10.28,72.66,19.24a13.15,13.15,0,0,1,9.1,17.5C60.85,535.67-27.17,504.23,8.17,391.16A13.17,13.17,0,0,1,24.24,382.35Zm21.74-63A15.69,15.69,0,0,1,34.55,301.2c7-35.86,17.75-62.22,2.43-93.46C19.64,172.41,14,123,22.23,95.28,40.73,32.68,65.64-10.93,97.64,2.41,161.39,29,191,133.07,187.71,183.74c-3.42,53-25.66,100.34-54.23,146.68a15.69,15.69,0,0,1-16.64,7.07C85.92,330.88,70,325.68,46,319.37Z"/></g></g></svg>