<svg xmlns="http://www.w3.org/2000/svg" viewBox="0 0 427.5 510.97"><defs><style>.cls-1{fill:#aa3c3c;}</style></defs><title>rank_down_ii</title><g id="Layer_2" data-name="Layer 2"><g id="Layer_13" data-name="Layer 13"><path class="cls-1" d="M0,360.19v-88.4a12.53,12.53,0,0,1,12.53-12.53l34.8,17.43.33-264.16A12.53,12.53,0,0,1,62.82.28L215.13,32.94,364.64.35a12.53,12.53,0,0,1,15.2,12.24l-.33,264.1L415,259.26a12.53,12.53,0,0,1,12.53,12.53v88.4A12.53,12.53,0,0,1,422,370.58L213.75,511,5.52,370.58A12.53,12.53,0,0,1,0,360.19Z"/></g></g></svg>