<?xml version="1.0" standalone="no"?>
<!DOCTYPE svg PUBLIC "-//W3C//DTD SVG 20010904//EN"
 "http://www.w3.org/TR/2001/REC-SVG-20010904/DTD/svg10.dtd">
<svg version="1.0" xmlns="http://www.w3.org/2000/svg"
 width="575.000000pt" height="575.000000pt" viewBox="0 0 575.000000 575.000000"
 preserveAspectRatio="xMidYMid meet">
<metadata>
Created by potrace 1.11, written by Peter Selinger 2001-2013
</metadata>
<g transform="translate(0.000000,575.000000) scale(0.100000,-0.100000)"
fill="#000000" stroke="none">
<path d="M2525 5724 c-14 -15 -25 -31 -25 -35 0 -10 -36 -54 -65 -80 -57 -51
-74 -63 -117 -85 -78 -40 -123 -51 -190 -48 -76 3 -114 18 -166 66 -120 111
-242 132 -472 83 -112 -24 -142 -31 -147 -35 -2 -2 -6 -3 -10 -4 -96 -25 -232
-92 -367 -180 -71 -47 -328 -229 -371 -263 -63 -50 -152 -101 -214 -123 -109
-38 -170 -67 -177 -83 -11 -31 -10 -71 3 -111 18 -53 85 -176 95 -176 4 0 8
-5 8 -11 0 -6 14 -28 30 -49 17 -21 37 -51 45 -66 13 -26 13 -30 -7 -51 -13
-14 -46 -28 -93 -38 -77 -18 -115 -43 -115 -77 0 -35 62 -108 236 -273 310
-296 497 -500 594 -645 8 -13 24 -35 36 -49 91 -116 271 -443 319 -581 33 -92
37 -269 10 -400 -3 -14 -8 -38 -11 -55 -2 -16 -9 -46 -14 -65 -5 -19 -11 -44
-13 -55 -2 -11 -9 -40 -16 -65 -8 -25 -14 -49 -16 -55 -1 -5 -5 -17 -8 -25 -5
-13 -11 -34 -33 -115 -6 -22 -94 -271 -103 -290 -5 -11 -18 -45 -29 -75 -30
-82 -192 -488 -214 -540 -11 -24 -21 -49 -23 -55 -2 -12 -22 -63 -35 -90 -16
-35 -121 -299 -125 -315 -2 -8 -9 -28 -15 -45 -18 -42 -87 -235 -117 -325 -33
-100 -29 -171 12 -206 15 -13 32 -24 36 -24 4 0 14 -3 23 -6 11 -4 16 0 16 13
0 11 3 23 7 27 5 4 8 11 9 14 1 6 15 45 31 82 3 8 7 17 7 20 1 3 18 45 38 95
20 50 53 133 73 185 21 52 43 109 51 127 8 17 14 33 14 36 0 2 10 26 22 53 12
27 23 54 24 59 6 29 110 271 119 277 5 4 6 8 2 8 -10 0 88 187 139 268 19 29
34 54 34 57 0 6 105 151 159 219 87 109 256 259 351 312 19 10 37 21 40 24 4
5 44 23 145 66 34 14 108 33 170 42 56 9 260 8 319 -2 137 -21 321 -87 470
-168 38 -21 71 -38 73 -38 11 0 244 -160 332 -228 90 -70 140 -113 275 -235
133 -121 309 -304 501 -522 111 -125 279 -290 352 -344 38 -28 73 -54 78 -59
48 -38 174 -81 220 -75 73 10 132 69 155 154 14 51 19 156 9 198 -18 81 -18
96 -3 119 18 27 49 40 112 47 26 3 66 7 89 10 69 7 140 43 152 75 16 48 2 78
-95 199 -29 36 -35 50 -30 75 7 34 28 51 108 87 111 49 126 79 143 279 6 62
10 90 19 136 9 44 35 91 66 119 79 72 99 96 105 124 9 42 -9 64 -79 96 -34 15
-72 37 -84 49 -22 19 -23 26 -17 88 6 65 5 67 -21 85 -15 10 -46 23 -68 28
-57 14 -57 36 1 73 50 33 93 86 93 116 0 16 -29 90 -51 129 -25 45 -28 158 -6
195 5 6 6 12 2 12 -3 0 6 18 20 40 14 22 25 44 25 50 0 5 3 10 8 10 4 0 12 8
17 19 6 10 25 46 43 80 85 160 106 290 60 372 -12 21 -24 39 -27 39 -4 0 -17
10 -31 23 -14 13 -28 24 -32 25 -4 2 -36 16 -70 32 -35 17 -69 30 -76 30 -8 0
-28 6 -45 14 -29 13 -141 40 -277 65 -75 15 -163 26 -280 37 -83 8 -231 8
-356 2 -70 -4 -119 0 -303 27 -19 3 -48 8 -65 12 -28 6 -121 6 -341 2 -44 -1
-98 1 -120 5 -98 18 -254 14 -340 -8 -148 -37 -437 -203 -568 -326 -18 -17
-35 -30 -40 -30 -7 0 40 44 91 86 13 10 38 31 55 46 18 15 35 28 39 28 3 0 20
11 36 25 77 65 558 325 601 325 6 0 11 4 11 9 0 5 11 12 25 15 34 9 139 71
180 108 19 16 44 45 56 64 18 30 20 44 15 102 -4 37 -8 102 -8 144 -2 75 0 79
61 200 67 130 95 205 106 278 4 24 9 48 11 52 3 4 7 49 9 100 8 176 -46 288
-194 402 -125 96 -356 187 -541 212 -30 4 -66 9 -80 10 -14 2 -67 4 -119 4
-138 1 -182 27 -294 173 -15 20 -32 37 -38 37 -5 0 -21 -12 -34 -26z"/>
</g>
</svg>
